<?xml version="1.0" encoding="UTF-8"?>
<svg id="Layer_1" data-name="Layer 1" xmlns="http://www.w3.org/2000/svg" version="1.1" viewBox="0 0 4000.15 4000.15">
  <defs>
    <style>
      .cls-1 {
        fill: none;
      }

      .cls-1, .cls-2, .cls-3 {
        stroke-width: 0px;
      }

      .cls-2 {
        fill: #000;
      }

      .cls-3 {
        fill: #fff;
      }
    </style>
  </defs>
  <g>
    <path class="cls-2" d="M1646.57,1616.95c.33.66.66,1.33.99,1.99,2.7-1.34,5.4-2.68,8.1-4.02-.33-.67-.67-1.34-1-2.01-2.7,1.35-5.39,2.69-8.09,4.04Z"/>
    <path class="cls-2" d="M1856.42,2300.81c-1.41-2.54-2.42-3.6-2.62-4.81-4.29-25.05-9.08-50.05-12.47-75.23-1.69-12.56-.86-25.47-1.05-38.23-.58-39.06-1.3-78.12-1.53-117.18-.07-11.07,1.21-22.17,2.18-33.22.23-2.58,1.75-5.05,2.64-7.57,2.61-7.38,5.61-14.66,7.72-22.18,6.58-23.49,12.89-47.05,19.15-70.63,4.89-18.42,6.19-37.29,7.49-56.23,1.31-19.09,2.56-38.32,11.7-55.97,3.83-7.4,5.62-15.84,9.23-23.39,3.02-6.32,7.23-12.08,11.08-17.97,5.56-8.5,14.57-10.64,23.69-12.62,5-1.08,9.92-2.57,14.89-3.81,2.34-.59,4.7-1.14,7.08-1.54,4.5-.75,9.09-1.08,13.51-2.15,5.51-1.34,10.43-.73,14.04,3.73,2.62,3.25,5.67,4.54,9.68,5.04,6.58.82,6.82,1.47,7.2,8.36.17,2.96.91,5.89,1.03,8.85.15,3.75.45,7.6-.21,11.24-1.64,9.06-3.32,18.15-5.85,26.99-3.78,13.2-7.53,26.45-14.78,38.41-3.07,5.07-5.06,10.78-7.78,16.08-3.73,7.29-8.21,13.96-14.87,19.09-4.97,3.83-8.16,9.15-11.48,14.54-10.8,17.48-17.01,36.82-24.21,55.8-3.27,8.61-7.28,16.94-11.08,25.34-6.47,14.32-13.69,28.35-19.34,42.98-4.37,11.32-7.3,23.28-10.05,35.14-4.64,20.04-8.12,40.35-13.05,60.31-4.58,18.51-6.63,37.29-7.77,56.17-1.19,19.72-1.46,39.5-1.84,59.26-.27,14.39.08,28.79-.14,43.18-.06,3.6-1.25,7.19-2.19,12.24Z"/>
    <path class="cls-2" d="M2153.35,2026.67c-.57-2.24-1.53-4.45-1.64-6.71-.69-13.53-.77-27.1-1.86-40.59-.98-12.1-1.82-24.41-4.81-36.1-6.44-25.19-13.29-50.35-21.68-74.94-11.11-32.57-24.05-64.5-35.76-96.87-3.52-9.72-8.85-17.89-16.12-24.99-12.03-11.75-24.37-23.21-35.96-35.37-4.57-4.79-7.67-11.05-11.13-16.82-4.18-6.97-7.85-14.25-12.09-21.19-5.32-8.7-8.59-18.06-10.17-28.07-1.65-10.5,4.06-19.29,14.14-22.01,8.32-2.25,16.5-5.21,24.93-6.84,8.16-1.57,16.56-1.92,24.87-2.61,1.83-.15,4.12-.05,5.53.92,12.05,8.3,26.89,11.37,38.24,21.08,14.59,12.48,24.68,27.89,32.03,45.4,9.82,23.38,13.21,47.89,13.56,73.03.42,30.11.12,60.28,1.87,90.32,1.62,27.87,1.79,55.78,3.33,83.61,1.42,25.6-1.22,50.78-3.44,76.08-.66,7.49-1.21,14.99-1.81,22.49-.68.06-1.35.12-2.03.18Z"/>
    <path class="cls-2" d="M1819.13,2172.1c-3.31-11.36-8.34-22.09-8.32-34.23.03-11.9-.54-23.84-1.69-35.68-.81-8.31-2.4-16.67-4.74-24.69-5.04-17.27-6.97-35.02-9.25-52.72-2.38-18.51-4.66-37.05-6.56-55.62-1.32-12.85-8.15-23.43-13.36-34.67-.92-1.99-3.78-2.99-5.33-4.81-4.74-5.56-3.32-9.16,2.37-10.01,7.07-1.06,12.19-4.74,16.91-10.09,3.1-3.51,7.74-5.98,12.12-7.98,9.31-4.23,15.31-11.89,21.55-19.38.61-.73.67-1.92.98-2.86-3.67-2.59-5.92.24-8.25,1.66-3.79,2.31-7.49,3.39-12.16,3.32-5.78-.09-11.59,1.73-17.33,2.72,1.22-8.28,6.42-16.14,12.87-20.15,2.23-1.39,4.24-3.44,5.77-5.61,5.79-8.2,12.18-16.13,16.72-24.99,4.13-8.05,6.14-17.19,9.1-25.85,1.05-3.05,2.25-6.05,3.21-9.14.92-2.95,1.61-5.98,2.39-8.97-.49-.25-.97-.5-1.46-.75-1.51,1.37-3.23,2.58-4.49,4.15-6.89,8.58-14.14,16.83-19.06,26.92-3.67,7.52-8.55,14.46-13.02,21.57-.83,1.32-2.18,3.08-3.44,3.21-5.56.55-7.33,4.98-9.82,8.74-2.7,4.07-5.52,8.07-8.01,12.27-5.04,8.5-11.48,15.66-20.12,21.61-5.58-4.04-5.07-10.29-3.25-15.16,7.51-20.15,9.76-41.53,15.35-62.11,3.55-13.07,6.5-26.3,9.55-39.5.85-3.66,1.1-7.47,1.57-11.21.27-2.15.22-4.35.64-6.46,2.43-12.28,8.4-21.32,22.18-21.79,14.88-.51,22.78-10.89,31.03-20.93,1.71-2.09,2.91-4.59,4.58-6.72,5.23-6.7,12.74-9.58,19.95-7.58v8.04c7-11.85,13.81-23.37,21.05-35.63.94,1.62,1.8,2.75,2.29,4.03,1.54,3.97,2.49,7.98,5.53,11.5,2,2.31,2.71,6.7,2.32,9.96-1.89,15.82-1.68,31.9-6.07,47.44-1.07,3.77-.53,8.05-.44,12.08.38,17.29-3.66,33.86-8.09,50.37-7.37,27.47-14.15,55.12-22.39,82.32-4.06,13.39-10.61,26.05-16.46,38.85-5.75,12.57-11.99,24.92-18.09,37.33-4,8.13-5.52,16.75-6.67,25.7-3.6,28.04,1.13,55.57,3.79,83.29,1.13,11.75,3.21,23.5,1.52,35.55-.96,6.85.34,14.02.62,21.04.01.27.14.55.09.81-2.35,12.79,1.24,25.23,2.23,37.82.08.98-.27,2-.42,3Z"/>
    <path class="cls-2" d="M1799.54,1653.59c6.15-4.31,11.23-7.86,16.41-11.49,4.17,5.44-.22,9.06-.68,13.78,8.14.58,14.71-8.3,23.86-3.48-.83,6.56-9.43,5.2-11.66,11.17,6.48,1.61,11.93-2.21,17.75-2.91,5.83-.7,11.59-1.99,19.58-3.41-2.64,3.87-3.79,6.58-5.79,8.27-3.08,2.59-6.66,4.65-10.2,6.63-8.98,5.04-18.07,9.9-27.08,14.88-.91.5-2.02,1.17-2.37,2.04-2.71,6.65-8.78,9.3-14.44,12.52-2.82,1.6-5.63,3.32-8.17,5.33-14.9,11.78-30.12,23.19-44.4,35.67-8.5,7.44-15.52,16.57-23.09,25.05-1.98,2.22-3.39,4.93-5.28,7.23-5.92,7.18-9.91,15.82-18.8,20.73-5,2.76-8.2,8.61-12.68,12.53-11.64,10.18-23.48,20.12-35.36,30.01-4.23,3.52-9.02,5.96-14.85,5.74-5.21-.19-9.28,2.25-12.93,5.86-5.77,5.72-11.72,11.27-17.67,16.8-6.93,6.44-11.82,14.09-14.26,23.27-.6,2.28-1.34,4.52-2.36,7.93-1.62-13.91,2.01-25.57,7.65-36.39,5.85-11.23,9.92-22.9,12-35.25,1.96-11.64,6.19-22.41,10.91-33.12,5.14-11.65,9.65-23.59,14.66-35.3,1.35-3.16,3.13-6.32,5.4-8.87,13.18-14.77,26.54-29.38,39.91-43.99,2.01-2.19,4.17-4.32,6.54-6.1,9.59-7.18,17.96-15.63,26.21-24.25,7.29-7.61,16.03-12.77,26.52-14.96,2.74-.57,5.41-2.27,7.69-4,3.23-2.45,6.41-5.13,9.03-8.21,6.96-8.19,16.04-11.54,26.34-12.9,2.61-.34,4.42-.1,6.73,1.25,6.77,3.97,7.32,4.63,5.96,11.92-.29,1.53-.55,3.07-1.08,6Z"/>
    <path class="cls-2" d="M2301.89,1690.69c-1.2-.45-2.63-.62-3.56-1.4-6.19-5.2-13.87-7.14-21.11-10.12-5.71-2.34-11.28-5.2-16.54-8.43-15.49-9.5-30.78-19.21-48.13-25.29-8.91-3.12-17.26-7.8-25.96-11.53-3.94-1.69-8.05-3.15-12.22-4.08-14.38-3.22-29-3.85-43.68-3.31-8.58.31-16.6-1.8-24.42-5.18-12.31-5.31-23.12-12.97-33.49-21.27-2.26-1.81-4.09-4.36-5.58-6.89-3.84-6.54-7.68-13.11-10.96-19.94-4.19-8.72-6.74-17.69-1.42-27.1,2.54-4.5,5.72-7.84,10.9-8.98,14.21-3.12,28.34-6.63,42.65-9.22,4.9-.89,10.25.15,15.31.86,9.64,1.36,19.43,2.35,28.79,4.88,19.82,5.36,37.68,15.03,53.85,27.65,3.59,2.8,6.27,6.75,9.55,9.98,8.88,8.74,17.49,17.81,26.88,25.97,15.21,13.23,26.43,29.36,35.8,46.93,4.2,7.88,7.64,16.15,11.78,24.06,2.75,5.26,6.12,10.21,9.25,15.27,1.21,1.96,2.54,3.85,3.82,5.78-.49.46-.99.92-1.48,1.38Z"/>
    <path class="cls-2" d="M2056.47,2108.95c-1.58.07-2.47.39-3.05.09-7.5-3.77-15.1-7.36-22.37-11.53-5.15-2.96-9.89-6.05-16.11-7.14-6.93-1.21-11.7-6.79-15.28-12.63-12.97-21.17-23.47-43.5-28.67-67.9-2.7-12.68-4.66-25.55-6.19-38.43-1.19-10.05,1.22-19.9,3.6-29.7,3.66-15,6.46-30.2,10.25-45.16,4.48-17.7,11.88-34.22,20.94-50.13,7.07-12.43,14.02-25.1,16.89-39.42.26-1.3.73-2.67,1.47-3.76,7.28-10.72,11.12-22.87,14.82-35.1.55-1.82,1.55-3.54,1.84-5.38,1.94-12.26,21.63-17.99,31.99-9.91,1.75,1.37,3.54,3.69,3.83,5.78,2.28,16.71,2.33,33.51.94,50.3-1.26,15.25-5.74,29.72-10.78,44.08-4.93,14.07-9.06,28.43-14.35,42.36-9.04,23.82-18.5,47.5-28.24,71.04-2.94,7.12-5.48,14.27-5.86,21.84-1.18,23.43-.06,46.84,7.95,69.05,5.7,15.81,13.65,30.73,26.82,42.1,3.21,2.77,6.03,6.01,9.55,9.55Z"/>
    <path class="cls-2" d="M2120.58,2227.6c-.53-12.97-.96-25.94-1.61-38.89-.61-11.92-1.73-23.7-7.5-34.6-3.93-7.42-7-15.29-10.74-22.81-8-16.06-14.82-32.54-19.82-49.8-4.52-15.62-10.24-30.91-14.11-46.67-2.62-10.67-3.77-21.87-4.13-32.89-.64-19.78-1.12-39.65.15-59.37.81-12.53,4.73-24.9,7.64-37.25,1.58-6.73,6.4-9.96,13.19-11.57,7.44-1.77,14.16-2,21.1,1.86,4.01,2.23,6.53,4.87,6.55,9.36.12,25.73.66,51.48.05,77.19-.57,24.1-1.43,48.07,3.39,71.94,2.13,10.56,2.75,21.43,4.1,32.15,2.33,18.51,4.19,37.1,7.17,55.51,2.93,18.13,2,36.02-.53,54.02-1.5,10.7-2.54,21.46-3.79,32.19-.37-.12-.74-.24-1.11-.36Z"/>
    <path class="cls-2" d="M1901.01,1765.25c-.51-3.01-1.48-6.02-1.44-9.02.19-13.28.81-26.55,1.02-39.83.19-11.92.16-23.85.03-35.78-.2-18.45-.4-36.9,5.4-54.74,1.34-4.11,2.98-8.12,4.45-12.19,1.52-4.22,4.64-6.32,8.86-7.53,5.43-1.55,10.84-3.29,16-5.55,1.93-.85,3.58-3.17,4.53-5.2,1.91-4.06,4.91-6.18,9.14-7.25,4.42-1.12,8.75-2.61,13.09-4.05,4.28-1.42,6.88.03,6.82,4.68-.07,4.83.93,8.58,4.61,12.19,2.96,2.89,5.86,4.42,9.8,4.88,6.57.76,9.71,3.68,10.02,10.35.3,6.46.21,13.03-.69,19.42-2.35,16.7-7.2,32.79-13.59,48.37-4.3,10.49-8.72,20.94-13.69,31.12-2.47,5.05-6.03,9.64-9.54,14.09-3.67,4.65-8.92,7.09-14.68,8-6.39,1.01-12.84,1.85-19.3,2.28-7.83.52-12.42,4.62-14.55,11.87-1.35,4.6-2.56,9.24-3.83,13.86-.82.01-1.64.03-2.45.04Z"/>
    <path class="cls-2" d="M1918.9,1573.82c-3.88,2.24-8.59,4.78-13.11,7.59-7.06,4.4-14.16,8.79-20.9,13.64-1.74,1.25-2.11,4.29-3.31,6.4-2.13,3.74-3.92,7.84-6.74,10.99-5.33,5.95-12.5,6.71-19.04,2.2-12.27-8.45-25.67-13.76-40.34-16.38-6.08-1.09-12.31-2.82-17.76-5.64-11.76-6.09-24.26-9.16-37.16-11.24-2.67-.43-5.47-.75-7.9-1.83-9.16-4.09-18.68-3.08-27.93-1.44-4.82.85-9.25,4.19-13.69,6.7-3.68,2.08-6.97,5.09-11.91,3.81.21-1.12.09-2.15.55-2.62,5.09-5.24,10.19-10.48,15.45-15.55,8.52-8.21,18.27-13.99,29.78-17.57,15.5-4.82,30.46-11.36,45.85-16.59,20.59-6.99,41.69-11.83,63.57-11.84,6.19,0,12.39,1.09,18.56,1.88,1.56.2,3.42.76,4.46,1.82,4.16,4.22,8.83,7.04,14.9,7.43,1.11.07,2.27,1.36,3.18,2.3,4.88,4.99,9.45,10.33,14.62,15.01,3.93,3.55,6.07,7.27,5.81,12.7-.1,2.2,1.59,4.49,3.05,8.23Z"/>
    <path class="cls-2" d="M2233.68,2108.59c-1.73-7.49-3.69-14.94-5.16-22.49-5.46-28.14-10.43-56.39-16.29-84.45-2.31-11.08-6.51-21.76-9.76-32.65-7.37-24.69-11.94-49.97-15.68-75.42-.55-3.74-1.16-7.59-.87-11.32,1.02-12.97-2.27-25.27-5.32-37.61-3.64-14.76-1.34-18.37,13.77-20.25,3.13-.39,6.61-.61,9.52.35,5.21,1.71,8.98,4.77,9.94,11.19.95,6.35,3.96,12.36,5.6,18.65,1.15,4.41,2.17,9.03,2.09,13.53-.12,6.98,1.55,13.4,4.02,19.75.39,1.01.89,1.98,1.38,2.94,6.6,12.95,10.17,26.63,11.11,41.19,1.23,19.14,3.74,38.22,4.47,57.38.35,9.04-1.99,18.22-3.42,27.3-3.32,21.13-6.47,42.28-5.43,63.77.33,6.75.96,13.48,1.36,20.22.15,2.54.02,5.1.02,7.65-.45.09-.91.19-1.36.28Z"/>
    <path class="cls-2" d="M2350.86,1936.04c-.75-3.9-1.69-7.77-2.21-11.7-2.19-16.48-7.29-32.24-12.73-47.79-10.36-29.66-21.04-59.22-32.6-88.43-3.6-9.09-10.43-16.91-15.84-25.27-1.32-2.04-3.06-3.81-4.26-5.91-3.48-6.11-7.09-12.19-10.07-18.55-2.27-4.85-4.36-9.98-5.28-15.21-1.7-9.67,2.22-14.75,11.72-16.8,8.93-1.92,17.85-3.85,26.8-5.71,3.5-.73,21.48,7.38,23.25,10.37.27.46.54.96.69,1.47,4.18,14.55,9.18,28.94,12.26,43.72,2.41,11.56,3.04,23.6,3.37,35.45.52,18.69-.55,37.43.31,56.09.87,18.88,3.44,37.67,4.92,56.53.82,10.48.94,21.02,1.37,31.54-.57.06-1.14.13-1.72.19Z"/>
    <path class="cls-2" d="M2081.79,1424.89c-.04,6.36-4.5,8.72-7.37,11.98-3.91,4.44-8.22,8.53-12.27,12.85-.69.73-1.34,1.82-1.4,2.78-.61,9.67-5.95,17.27-11,24.9-8.84,13.35-12.37,27.62-11.44,43.82.88,15.32-.14,30.85-6.56,45.38-2.61,5.91-4.71,12.05-7.49,17.86-1.61,3.36-3.7,6.72-6.32,9.33-4.51,4.51-7.32,3.54-12.73.24-11.14-6.82-15.98-18.08-21.86-28.66-4.45-8.01-6.79-16.2-3.29-25.56,2.93-7.83,4.7-16.1,6.89-24.2,1.86-6.91,3.71-13.69,4.65-20.97,1.49-11.53,7.59-22.13,15.95-30.57,12.33-12.46,27.61-20.93,42.67-29.58,2.08-1.19,4.53-1.81,6.86-2.5,6.7-1.98,13.8-2.63,19.96-6.39,1.01-.62,2.53-.41,4.77-.71Z"/>
    <path class="cls-2" d="M2268.24,1926.73c-1.02-4.91-1.79-9.88-3.1-14.71-5.39-19.87-11.27-39.62-16.37-59.56-7.35-28.75-18.69-56.08-29.69-83.47-4.15-10.33-11.45-19.67-18.56-28.44-7.8-9.63-13.1-20.53-18.79-31.27-1.58-2.99-2.08-6.77-2.29-10.23-.42-6.72,2.67-10.56,9.37-12.05,7.9-1.76,15.83-3.37,23.78-4.84,3.54-.66,7.03-.44,9.85,2.41.93.94,2.13,2.22,3.25,2.26,7.47.27,10.14,5.84,12.23,11.4,7.25,19.22,16.89,37.7,18.95,58.59,1.03,10.5,2.02,21.01,2.76,31.53,1.74,24.56,3.16,49.15,5.06,73.7.79,10.23,2.71,20.38,3.7,30.6,1.09,11.24,1.7,22.52,2.51,33.78-.89.09-1.79.19-2.68.28Z"/>
    <path class="cls-2" d="M1827.66,1434.49c4.18-5.09,9.02-5.36,14.29-4.81,5.59.59,11.21,1.03,16.82,1.21,9.42.29,18.24,2.86,26.27,7.53,11,6.4,21.65,13.38,32.47,20.08,7.8,4.84,15.6,9.68,23.46,14.4,1.08.65,2.78,1.19,3.85.8,5.69-2.07,9.64,2.41,14.45,3.55.73.17,1.65.67,1.98,1.28,3.91,7.25,10.44,13.36,9.72,22.66-.16,2.07-.14,4.57.86,6.25,5.32,8.96,2.52,17.94.02,26.69-1.59,5.56-4.84,10.62-7.02,16.03-1.87,4.65-3.79,9.58-9,10.77-5.51,1.26-11.22-.08-16.06-3.06-4.56-2.81-8.79-6.06-11.09-11.42-2.59-6.07-6.91-10.87-12.53-14.59-2.41-1.59-4.77-3.86-6.1-6.38-7.34-13.88-15.16-27.6-21.2-42.05-3.93-9.41-8.92-17.89-14.81-25.97-10.43-14.32-10.5-14.38-27.41-19.1-4.59-1.28-9.51-1.34-14.25-2.12-1.43-.24-2.77-1-4.72-1.74Z"/>
    <path class="cls-2" d="M1658.67,2039.63c-.67-2.79-1.77-5.56-1.94-8.38-1.24-20.81-2.71-41.62-3.28-62.46-.6-22.06,6.32-42.74,13.61-63.21,2.18-6.12,5.04-12,7.76-17.91,5.33-11.55,11.34-22.83,12.67-35.83.24-2.36,1.48-4.63,2.28-6.94,1.73-5.03,5.09-8.01,10.43-9.05,7.93-1.53,15.77-3.61,23.73-4.94,2.37-.4,5.15.66,7.54,1.59,2.66,1.03,4.96,3.08,7.66,3.95,3.43,1.11,4.8,3.29,4.93,6.57.29,7.65-.41,15.04-4.23,21.99-1.76,3.2-2.11,7.16-3.85,10.38-4.73,8.79-9.62,17.51-14.93,25.95-2.27,3.6-5.44,6.83-8.74,9.57-15.67,13.02-28.6,28.22-36.93,46.9-3.07,6.87-5.81,14.14-7.1,21.51-3.26,18.65-5.63,37.45-8.28,56.2-.17,1.21.28,2.5.44,3.75l-1.76.34Z"/>
    <path class="cls-2" d="M2169.06,2050.31c3.14-9,6.4-17.83,9.3-26.78,2.76-8.49,5.15-17.09,7.71-25.65.84.27,1.26.35,1.25.41-.43,12.12,5.54,22.31,9.57,33.15,2.32,6.24,2.95,13.13,4.08,19.77.76,4.49,1.28,9.05,1.5,13.59.19,4.04.19,8.17-.39,12.16-1.04,7.16-2.89,14.2-3.87,21.37-3.65,26.52-7.06,53.07-10.6,79.6-2.13,15.99-4.35,31.97-6.76,49.66-2.21-2.35-3.83-3.35-4.32-4.75-.87-2.52-1.33-5.27-1.5-7.95-.84-13.24-1.52-26.49-2.27-39.73-.09-1.62-.16-3.25-.37-4.85-1.28-9.64-3.84-19.3-3.61-28.9.33-13.9-6.14-25.64-9.42-38.38-1.48-5.73-2.81-11.49-4.15-17.26-1.28-5.53-2.48-11.08-3.71-16.62-.52-2.37-1.34-4.74-1.44-7.14-.19-4.73,1.98-7.67,6.55-8.94,4.14-1.15,8.4-1.9,12.43-2.78Z"/>
    <path class="cls-2" d="M2186.4,1482.4c6.51,3.56,14.26,3.76,18.52,10.39.59.92,2.41,1.05,3.67,1.55,7.53,2.97,15.12,5.78,22.56,8.97,3.58,1.54,7.58,2.9,9.66,8.35-3.67-.98-6.62-1.34-9.19-2.52-10.69-4.93-21.74-7.74-33.61-8.12-12.42-.39-24.81-1.75-37.2-2.72-12.56-.98-25.09.64-37.04,3.58-8.96,2.2-17.01,8.18-25.39,12.61-3.11,1.65-5.94,3.81-9.01,5.54-5.57,3.14-6.93,3.26-11.4-1.35-2.96-3.04-5.23-6.89-7.25-10.67-2.8-5.22-5.16-10.68-7.55-16.11-.97-2.21-1.83-4.57-2.18-6.94-.74-4.92.31-9.47,5.37-11.55,5.96-2.45,12.04-4.75,18.26-6.36,6.79-1.76,13.77-2.86,20.72-3.88,3.98-.59,8.11-.9,12.11-.56,8.87.76,17.7,2.01,26.54,3.05.81.09,1.66-.06,2.43.14,11.99,3.24,24,6.42,35.94,9.84,3.26.93,6.14,2.7,4.06,6.74Z"/>
    <path class="cls-2" d="M2319.53,2022.96c6.71-1.25,12.11-2.25,18.26-3.39-2.07-6.18-4.1-12.57-6.34-18.88-5.98-16.84-12.05-33.65-18.11-50.47-1.29-3.57-2.27-7.34-4.12-10.59-6.44-11.28-9.48-23.54-11.47-36.2-1.11-7.09.18-9.28,7.12-10.97,6.04-1.46,11.97-2.99,18.1.25,2.76,1.46,4.71,3.36,4.47,6.13-1.42,16.11,5.42,30.84,7.45,46.37,3.53,27.09,7.42,54.12,11.26,81.17,1.82,12.84,3.9,25.64,5.81,38.46.18,1.24.02,2.53-1.07,4.04-2.94-9.72-5.88-19.43-8.89-29.37-3.74,9.36-7.94,18.16-10.74,27.38-2.69,8.84-3.93,18.12-5.81,27.21-.61-.07-1.21-.13-1.82-.2-1.34-23.22-2.69-46.44-4.1-70.95Z"/>
    <path class="cls-2" d="M1769.42,2076.31c-3.08-2.51-3.23-6-3.86-9.34-1.58-8.23-3.03-16.5-4.9-24.66-1.96-8.51-5.58-16.33-10.34-23.72-4.1-6.37-7.55-13.16-11.26-19.78-2.9-5.19-5.44-10.63-10.91-13.79-.45-.26-.92-.68-1.15-1.14-5.32-10.55-13.66-19.59-15.72-31.79-1.43-8.48,1.97-13.95,10.45-15.88,7.34-1.68,14.72-3.24,22.12-4.58,2.03-.37,4.87-.55,6.24.55,3.03,2.43,6.11,3.96,9.87,5.02,1.82.51,4,3.99,3.96,6.08-.14,6.16-1.36,12.3-2.05,18.45-.45,3.98-1.38,8.07-.92,11.97,1.91,15.83,3.92,31.67,6.56,47.39,3.08,18.3,2.6,36.67,1.9,55.22Z"/>
    <path class="cls-2" d="M1715.35,1483.61c1.92-.6,4.19-1.29,6.45-2.03,1.53-.5,4.04-.73,4.39-1.7,1.95-5.43,6.71-4.41,10.71-5.27,18.12-3.89,36.5-4.57,54.94-4.55,1.89,0,3.8.19,5.67.48,12.82,1.98,25.75,3.48,38.4,6.24,6.45,1.4,12.47,4.93,18.55,7.79,3.69,1.74,4.45,5.31,4.08,9.03-.86,8.76-4.26,16.73-8.48,24.26-2.62,4.68-6.36,5.16-10.63,1.37-13.65-12.12-30.5-18.66-46.68-25.9-10.4-4.66-22.34-6.64-33.81-7.93-14.38-1.61-28.98-1.28-43.6-1.79Z"/>
    <path class="cls-2" d="M2288.76,1581.04c-3.12-2.49-5.98-5.42-9.39-7.38-10.14-5.83-20.79-10.45-32.57-11.88-4.81-.58-9.7-.78-14.4-1.81-4.91-1.08-8.71-4.23-10.98-8.79-2.85-5.73-6.53-9.52-13.68-9.48-2.43.01-5.82-2.44-7.12-4.72-3.5-6.13-9.47-7.76-15.26-9.87-3.04-1.11-6.3-1.63-9.32-2.77-2.21-.84-4.73-1.82-6.17-3.53-2.36-2.8-5.53-6.46-3.29-9.99,1.31-2.06,5.51-2.86,8.52-3.14,7.96-.75,15.53.94,22.82,4.47,2.98,1.44,6.63,1.79,10.03,2.04,4.79.36,8.61,1.53,11.3,6.1,2.29,3.88,6.52,5.66,11.02,5.57,6.69-.12,12.83-.14,15.01,8.28.48,1.84,3.58,3.05,5.52,4.47,8.94,6.54,18.14,12.75,26.77,19.68,6.86,5.5,10.81,13.1,12.81,21.56-.53.4-1.06.8-1.59,1.2Z"/>
    <path class="cls-2" d="M2418.15,1893.4c-8.42-13.24-13.31-27.94-22.54-40.52-2.94-4-4.72-9.19-5.82-14.11-1.75-7.82-5.08-13.97-12.1-18.34-10.23-6.36-16.36-15.44-17.05-27.91-.19-3.43-1.81-6.77-2.71-10.17-1.27-4.74-.85-9.45,2.69-12.89,3.54-3.43,12.32-2.86,16.71.25,5.42,3.84,9.53,8.74,12.51,14.68,2.45,4.87,5.19,9.58,10.4,12.15,2.6,1.28,2.85,3.61,2.95,6.18.23,6.2.99,12.39.93,18.58-.05,5.38-.27,10.92-1.64,16.07-1.42,5.35-.93,9.93,1.19,14.92,4.13,9.73,7.89,19.64,11.53,29.57,1.36,3.71,1.99,7.69,2.95,11.55Z"/>
    <path class="cls-2" d="M2405.42,1985.09c-1.14-2.12-2.03-3.02-2.07-3.96-.39-9.97-4.03-18.93-7.99-27.89-1.73-3.91-2.88-8.21-3.53-12.44-.98-6.4-3.71-11.59-7.89-16.54-3.61-4.28-6.21-9.44-9.05-14.33-.77-1.33-1.52-3.35-1.06-4.61,2.22-6.14-1.4-10.82-3.29-16.02-1.75-4.8-2.89-9.81-4.32-14.73-1.15-3.98.75-6.06,4.32-7.33,7.02-2.5,11.4-1.06,15.99,5.31,2.81,3.89,5.04,8.17,9.95,10.29,3.86,1.67,4.93,5.83,4.9,9.64-.13,18.33,5.38,36.26,3.14,54.82-.81,6.75,1.59,13.87,2.42,20.83.64,5.28,1.66,10.62-1.53,16.95Z"/>
    <path class="cls-2" d="M1686.3,1658.7c-.35-1.2-.57-1.53-.48-1.69,5.48-9.4,9.59-19.67,20.21-25.29,4.75-2.52,8.44-7.14,12.39-11.03,9.18-9.02,21.15-11.7,32.99-14.46,6.07-1.42,10.33,2.96,8.72,8.94-2.93,10.86-7.64,19.59-20.65,22.18-10.27,2.05-20.38,4.88-30.83,6.35-3.52.49-6.97,2.89-10.03,5.02-4.19,2.92-7.99,6.42-12.32,9.98Z"/>
    <path class="cls-2" d="M1647.83,1560.95c1.16-2.03,1.94-4.44,3.55-6.01,5.14-5,10.06-10.48,16.01-14.33,17.3-11.19,35.38-20.95,55.89-25.12,1.84-.37,3.71-.83,5.58-.85,7.96-.06,9.95,3.17,7.51,10.8-2.47,7.75-6.73,10.93-15.42,12.49-17.39,3.13-35.6,4.1-51.47,13.44-1.36.8-3.06,1.64-4.54,1.54-7.45-.52-11.97,3.81-17.1,8.04Z"/>
    <path class="cls-2" d="M1883.38,2225.97c-3.05-3.02-1.49-5.8-.86-8.56,2.43-10.53,4.79-21.07,7.17-31.6,2.91-12.88,1.29-25.83.56-38.76-.44-7.83-.83-15.66-1.14-23.49-.14-3.43.88-6.37,4.13-8.21,2.57-1.45,4.86-3.51,8.14-1.4,3.04,1.95,5.93,3.69,5.72,8.02-.54,10.78-.82,21.58-1.36,32.37-.61,12.23-3.07,24.02-7.82,35.41-4.57,10.97-8.56,22.19-12.85,33.28-.35.9-.97,1.7-1.7,2.95Z"/>
    <path class="cls-2" d="M1595.52,1971.1c1.75-5.04,3.5-10.07,5.25-15.11,2.22-6.37,4.6-12.68,6.64-19.11,4.57-14.42,9.1-28.74,17.19-41.84,4.71-7.63,11.5-9.37,19.01-10.27,4.85-.58,7.55,2.34,6.21,6.95-1.31,4.48-3.67,8.89-6.48,12.64-5.96,7.94-13.13,15.02-18.65,23.23-4.63,6.89-7.15,15.18-11.47,22.32-4.69,7.76-10.39,14.91-15.65,22.32-.68-.38-1.37-.76-2.05-1.13Z"/>
    <path class="cls-2" d="M2214,2214.42c-3.05-5.45-1.45-9.38-1.06-13.24,1.28-12.62,3.16-25.21,3.64-37.86.4-10.5-.94-21.06-1.33-31.6-.1-2.8-1.35-6.69,2.32-7.86,3.93-1.25,8.45-2.31,12.36-1.58,4.98.92,5.52,3.75,4,9.49-3.4,12.79-6.89,25.56-9.9,38.43-3.08,13.16-5.62,26.44-8.43,39.65-.22,1.02-.68,1.99-1.59,4.57Z"/>
    <path class="cls-2" d="M2224.08,2297.78c.48,6.34.96,12.69,1.44,19.03-.45.02-.89.04-1.34.06,0-6.41,0-12.82.02-19.25.02-.03-.12.16-.12.16Z"/>
    <path class="cls-3" d="M1796.47,2285.08c12.02.62,11.74,12.32,19.06,17.2-9.95,1.16-13.41-2.05-19.06-17.2Z"/>
    <path class="cls-3" d="M1740.16,2225.34c-1.02-1.03-2.04-2.05-3.66-3.69q4.81-1.11,5.29,2.37c-.54.44-1.09.88-1.63,1.32Z"/>
    <path class="cls-3" d="M1646.57,1616.95c2.7-1.35,5.39-2.69,8.09-4.04.33.67.67,1.34,1,2.01-2.7,1.34-5.4,2.68-8.1,4.02-.33-.66-.66-1.33-.99-1.99Z"/>
  </g>
  <path class="cls-2" d="M807.99,1794.48c2.95-4.13,7.09-6.59,12.88-8.77,15.37.31,31.12,3.06,45.72,11.41,21.38,12.22,44.32,20.29,68.6,24.49,5.34.93,10.7,1.87,15.97,3.11,11.72,2.76,23.65,3.16,35.59,3.32,8.69.11,17.38.03,26.07-.02,2.71-.01,5.46.04,8.13-.35,19.31-2.8,38.78-4.42,57.82-9.15,11.14-2.77,21.54-7.37,32.29-11.1,5.63-1.95,11.15-4.22,16.78-6.17,10.77-3.72,21.33-7.75,31.45-13.18,12.89-6.92,26.3-12.87,39.57-19.06,15.8-7.36,30.54-16.45,44.87-26.33,20.56-14.16,41.16-28.28,62.19-41.72,11.86-7.58,24.62-13.77,36.97-20.57,1.43-.79,2.92-1.45,4.34-2.24,17.08-9.54,34.86-17.55,52.9-25.08,9-3.76,17.86-7.98,26.43-12.62,11.49-6.23,23.44-11.35,35.64-15.92,19.3-7.22,38.41-15.06,58.47-20.02,11.58-2.86,23.28-5.24,34.92-7.84,9-2.01,17.98-3.95,27.19-4.99,8.07-.91,16.03-2.74,24.05-4.15,12.57-2.22,25.39.28,37.82-1.91,7.35-1.3,14.05-4.91,21.08-7.4,7.34-2.6,15.05-3.99,22.71-5.36-4.22.76-11.04,8.45-13.67,11.63-3.7,4.48-7.73,8.91-11.37,13.53-4.9,6.24-11.18,11.94-17.43,16.78-6.15,4.76-13.17,9.16-19.68,13.39-6.44,4.18-9.42,8.35-12.24,15.68-1.13,2.94-2.25,6.33-.82,9.14,2.76-7.63,8.53-14.48,16.24-16.99,2.08-.68,4.25-1.03,6.41-1.38,9.51-1.54,19.05-2.3,28.47-4.07,7.64-1.43,15.09-3.9,22.07-7.3-8.49,4.13-16.73,10.18-25.45,14.49-9.93,4.91-19.57,10.63-27.38,18.59-2.82,2.87-5.38,6.01-8.46,8.59-8.69,7.26-19.35,7.24-25.28,17.89-3.06,5.49-5,11.64-8.79,16.65-3.34,4.42-7.93,7.72-11.55,11.9-3.62,4.18-6.31,9.9-4.68,15.18-3.5-11.33,23.01-16.76,28.24-19.63,5.09-2.79,8.69-7.99,14.1-10.09,4.24-1.65,8.97-1.14,13.51-1.42,4.54-.28,9.57-1.75,11.73-5.75-1.63,3.02-4.72,5.67-6.61,8.62-2.1,3.27-3.64,6.72-5.32,10.2-3.31,6.86-6.37,14.21-10.73,20.54-8.02,11.64-20.59,19.5-33.84,24.41-10.71,3.96-22.05,6.19-33.46,6.57-9.76.32-19.72-.67-29.14,1.89-5.99,1.63-11.47,4.63-17.34,6.62-5.54,1.88-11.49,2.42-17.18,3.81-12.99,3.18-25.84,6.97-38.42,11.52-10.69,3.87-21.09,8.58-31.44,13.32-14.3,6.54-28.43,13.44-43.01,19.42-8.51,3.49-16.56,8.09-24.79,12.24-7.75,3.91-15.45,7.92-23.18,11.85-4.35,2.21-8.89,4.11-13.08,6.6-22.53,13.41-47.27,21.72-71.54,31.14-2.52.98-5.15,1.83-7.8,2.3-19.31,3.43-37.49,10.8-56.27,16.06-2.08.58-4.15,1.45-6.27,1.63-13.59,1.17-26.62,5.05-39.76,8.31-14.25,3.54-28.69,6.17-43.18,8.13-15.03,2.03-30.31,1.5-45.46,2.41-13.85-2.63-28.27-.93-41.88-5.44-12.47-1.1-24.73-3.49-36.81-6.62-20.51-5.31-40.46-12.31-59.63-21.38-2.45-1.16-4.84-2.47-7.11-3.95-16.81-11-34.03-21.3-51.32-31.52-7.44-4.39-14.21-9.97-21-15.37-7.75-6.17-13.39-14.15-18.03-22.85-2.71-5.09-3.16-10.28-.85-15.66Z"/>
  <path class="cls-2" d="M3183.57,1814.4c-3.09-.98-6.28-2.06-9.47-2.19-11.92-.49-23.86-1.22-35.65,1.63-6.32,1.53-12.67,3.29-19.11,3.84-14.08,1.2-27.87,4.27-41.89,5.73-5.39.56-10.79,1.16-16.21,1.36-10.3.39-20.62.39-30.92.8-9.2.37-18.4,1.61-27.59,1.47-9.19-.14-18.36-1.66-27.55-2.33-20.58-1.5-41.11-3.26-60.9-9.72-3.6-1.18-7.3-2.2-11.03-2.79-21.57-3.43-41.76-11.54-62.35-18.25-4.62-1.5-9.09-3.63-13.37-5.95-20.5-11.11-41.3-21.7-60.89-34.45-6.35-4.13-12.88-8.12-19.71-11.39-23.06-11.05-44.7-24.6-66.11-38.39-18.75-12.07-38.14-22.79-57.97-32.91-18.83-9.61-37.48-19.55-56.77-28.25-10.87-4.91-21.44-10.5-32.29-15.45-13.34-6.1-27.11-10.96-41.44-14.3-14.25-3.31-28.5-6.72-42.58-10.71-13.66-3.87-27.57-6.19-41.19-10.82-13.01-4.43-26.02-8.86-39.03-13.29-2.49-.85-5-1.7-7.6-2.1-2.88-.44-5.82-.31-8.74-.25-16.34.33-30.3-10.07-45.37.07,8.51,9.3,13.05,22.1,12.31,34.68-11.68-8.57-31.58,2.03-41.27-8.73,5.64,17.15,23.76,26.47,40.57,33.05,16.81,6.57,35.33,13.25,44.69,28.68-15.51-5.68-32.36-7.66-48.77-5.75,7-.82,17,18.61,20.92,23.12,8.6,9.9,19.38,18.38,32.4,21.32,6.58,1.49,11.41-1.46,17.1-.87,7.95.82,11.23,8.24,18.36,10.59-2.71-1.75-6.29-1.58-9.35-.54s-5.79,2.85-8.67,4.3c-10.78,5.42-19.71,4.95-29.55.21,5.82,2.81,9.27,8.79,12.93,14.12,5.24,7.63,14.7,13.93,23.07,17.85,3.67,1.72,7.55,2.52,11.54,2.83,5.3,1.46,10.7,2.16,16.15,2.47,10.03.58,20.23-.06,30.22.63,5.38,1.47,10.7,3.17,16.03,4.71,11.47,3.31,23.06,4.67,34.45,8.04,4.14,1.22,8.18,2.94,12.06,4.84,21.92,10.7,44.36,20.37,65.48,32.68,3.74,2.18,7.68,4.13,11.73,5.63,19.89,7.36,38.55,17.4,57.6,26.54,17.63,8.46,35.7,15.79,53.68,23.36,9.01,3.8,18.36,6.59,27.75,9.28,7.81,2.24,15.66,4.41,23.36,7.03,22.11,7.51,44.43,13.83,67.65,17.27,23.67,3.51,47.3,6.36,71.25,6.19,19-.14,38-.05,56.99-.41,10.29-.2,20.58-1.04,30.86-1.8,8.66-.64,17.28-1.51,26-1.19,9.79.36,19.45-.7,29.08-2.8,12.21-2.65,24.17-6.12,36.06-9.83,23.31-7.27,46.06-16.11,68.48-25.74,11.45-4.92,22.77-10.16,33.9-15.75,5.76-2.89,11.49-6.15,15.86-11.07.51-1.69,1.21-3.21,1.41-4.79.72-5.87-1.56-9.89-6.63-11.5Z"/>
  <g>
    <path class="cls-1" d="M1796.47,2285.08c5.64,15.15,9.11,18.36,19.06,17.2-7.32-4.88-7.04-16.58-19.06-17.2Z"/>
    <path class="cls-1" d="M1736.5,2221.65c1.62,1.64,2.64,2.66,3.66,3.69.54-.44,1.09-.88,1.63-1.32q-.49-3.48-5.29-2.37Z"/>
    <path class="cls-2" d="M2224.23,2297.59c-.06,0-.11.02-.16.03,0,.05.01.11.02.16l.15-.19Z"/>
    <g>
      <path class="cls-2" d="M2065.68,2215.39c-.26.84-.42,1.62-.42,2.31.16-.77.3-1.54.42-2.31Z"/>
      <path class="cls-2" d="M2114.59,2284.86c-9.92-20.51-18.44-41.16-15.68-65.03,2.11-18.27,3.26-36.09-1.82-53.97-4.16-14.64-19.32-23.37-20.64-38.74-.41-4.76.64-9.52,1.86-14.13-6.59,7.77-10.35,18.79-6.8,28.34.99,2.66,2.49,5.09,3.69,7.65,10.42,22.28,3.75,55.74,5.86,79.88.24,2.79,3.02,53.52-.27,52.95-5.14-.89-6.07-7.73-6.42-12.94-.49-7.2-2.26-14.32-5.21-20.9-1.95-1.07-3.86,1.55-4.32,3.73-.45,2.17-1.19,5-3.41,5.13-3.34-12.02-1.47-25.82.4-38.99.79-5.56,1.59-11.01,1.99-16.16,1.27-16.3.17-33.72-9.04-47.23-2.35-3.45-5.26-6.7-6.31-10.75-1.58-6.06-1.55-13.05-8.16-15.72-6.99-2.82-14.6,3.27-21.72.12-4.68-2.07-8.76-6.56-14.19-5.73-.02,0-.05,0-.07.01-1.05,1.88-.54,3.49,1.28,4.67,8.28,5.38,11.65,12.9,16.34,21,2.57,4.44,4.58,9.12,5.83,14.1.77,3.08,0,10.98,1.53,13.27.54.8,1.88.58,2.48-.18s.66-1.8.69-2.77c.2-5.55.4-11.11.6-16.66,6.3,20.28.39,42.14,1.1,63.37.21,6.26,1,12.5,1.35,18.75.67,12.14-4.29,26.52-.32,38.14.19.57.54,1.22,1.14,1.25.37-8.05,2.51-16.6,6.76-23.5,2.51,7.26-.12,18.33-2.49,25.57-1.46,4.44-3.5,8.81-4.26,13.45-.31,1.89.66,8.06-1,9.47-2.04,1.73-3.71,1.62-5,.49-2.97-2.61-5.04-5.64-6.19-9,0-.7,0-1.41.05-2.12.2-2.77-.26-5.58-.76-8.4,1.04-9.2,2.59-18.44,4.13-29.2-.83-4.75-1.86-11.26-3.14-17.72-.53-2.68-1.26-5.42-2.48-7.85-3.57-7.07-4.98-14.54-4.77-22.14-2.27-4.75-4.41-9.21-6.58-13.76-.5-3.78-.95-7.6-1.52-11.4-.9-6.06-2.82-11.89-6.11-17.02-.97-1.5-1.96-2.99-2.99-4.46-.51-3.74-1.05-7.48-1.81-11.18-.5-2.44.18-6.33-5.03-6.77-.28,2.84-.53,5.68-.78,8.53-1.32-1.39-2.71-2.73-4.17-4-1.39-1.2-2.96-1.25-4.52.87,0,1.15-.27,2.8.04,4.33,2.64,12.7,1.19,25.12-2.26,37.46-1.18,4.24-1.79,8.64-3.07,12.84-.33,1.08-.66,2.16-1,3.24-.9-3.13-1.65-5.71-2.53-8.22-1.35-3.82-2.32-8.22-8.45-8.72.87,4.65,1.6,8.57,2.29,12.24-1.32,2.24-3.09,4.16-3.65,6.39-2.15,8.6-3.85,17.31-5.82,25.95-.74,3.27-1.45,6.54-2.19,9.81-.43.96-.84,1.93-1.22,2.92-2.6,6.93-5.61,13.66-9.11,20.16-.6-4.87-.72-9.45-.48-14.01.42-8.04-1.84-16.04.24-24.19.68-2.67-1.37-5.99-2.04-9.05-.38-1.72-1.07-3.68-.61-5.24,5.73-19.29,9.32-38.97,11.59-58.94,2.82-24.77,5.95-49.51.81-74.36-2.96-14.31-2.45-28.49.59-42.79.97-4.56.07-9.59-.39-14.36-.28-2.83-1.74-5.55-2.05-8.38-1.24-11.58-3.2-22.99-7.01-35.47-2.2,6.13-3.79,10.99-5.68,15.72-.98,2.46-2.24,4.88-3.79,7.01-2.83,3.9-6,7.56-8.98,11.35-2.17,2.77-3.97,5.9-6.46,8.33-10.31,10.09-13.29,23.08-12.89,36.49.37,12.69,3.83,25.11,8.45,37.1,2.24,5.8,4.75,11.7,5.66,17.78,2.49,16.58,4.98,33.22,5.98,49.93,1,16.77.69,33.66.06,50.47-.51,13.84-3.45,27.38-8.38,40.43-4.12,10.88-8.04,21.84-12.03,32.77-.78,2.13-1.47,4.28-2.21,6.42-1.91-3.06-2.66-5.92-3.26-8.8-2.25-10.84-6.83-20.53-13.97-29.03-1.68-2-3.16-4.16-6.28-3.7.93,4.4,2.67,8.37,2.42,12.21-.78,12.14-2.61,24.22-3.46,36.36-.55,7.76-3.41,14.59-6.64,21.29-.87-2.21-1.59-4.5-.99-6.06-1.39,3.6-.97,7.95-1.82,11.77-.54,1.09-1.07,2.19-1.59,3.28-.59,1.25-2.13,2.05-3.49,3.3,1.25,3.7,2.64,7.41,3.7,11.23.28,2.84.81,5.69,1.6,8.55,0,.02,0,.03.01.05.32,3.81.07,7.77-1.17,12-4.91-7.95-9.28-15.03-13.65-22.11-3.56-5.76-7.42-11.37-10.55-17.36-1.38-2.64-2.85-7.37-1.59-8.85,4.34-5.1,1.67-9.37-.51-13.45-5.73-10.75-11.97-21.22-17.92-31.86-1.04-1.86-1.79-3.91-2.44-5.95-2.36-7.49-4.7-14.99-6.87-22.53-1.49-5.19-3.45-10.4-3.85-15.71-.75-9.74-5.38-17.96-8.82-26.69-2.28-5.76-4.88-11.5-6.24-17.49-1.61-7.09-2.92-14.46-2.77-21.68.31-15.4-7.75-27.35-14.83-39.79-1.93-3.39-4.41-6.47-6.97-10.18-2.48,4.57-.33,8,.51,11.48.95,3.94,2.87,7.84,2.89,11.76.05,10.56-.56,21.14-1.15,31.69-.7,12.63.22,25.27,5.75,36.56,5.52,11.28,8.5,22.68,8.67,35.11.08,6.34,1,12.66,1.54,18.99-1.88-1.55-2.64-3.4-3.18-5.32-1.62-5.73-3.14-11.48-4.73-17.21-1.37-4.97-3.95-9.15-9.13-10.62-8.62-2.45-10.68-10.46-13.79-16.92-2.97-6.16-3.28-13.55-5.39-20.2-2.59-8.16-1.99-16.64-3.3-24.87-1.97-12.29-4.95-24.41-4.41-37,.07-1.6-.22-3.25-.57-4.83-2.68-11.85-3.35-24.19-8.76-35.39-.79-1.63-.51-3.75-.98-5.58-1.69-6.53-2.52-13.51-5.44-19.46-5.36-10.9-10.65-21.71-13.16-33.69-.04-.2-.87-.23-2.55-.64.58,9.41.93,18.49,1.73,27.52,1.38,15.58,3.09,31.14,4.53,46.71.17,1.83-.45,3.73-.71,5.6-3.97-11.6-7.33-23.01-8.59-34.66-1.54-14.24-1.27-28.68-1.92-43.02-.11-2.52-.93-5.01-1.4-7.45-2.91,15.91-5.68,31.54-8.7,47.13-.64,3.31-1.81,6.79-6.42,7.54,0-12.74.22-25.07-.06-37.39-.28-12.25-4.01-23.81-7.83-35.44-1.16,3.72-1.13,7.51-2.11,11.02-1.3,4.66-4.24,8.97-4.99,13.67-1.85,11.72-2.76,23.58-4.26,35.36-.54,4.22-1.48,8.41-2.57,12.52-1.25,4.7-4.05,9.1-2.89,16,2.37-4.61,3.97-7.73,5.78-11.24,3.63,5.72,3.05,10.63,1.37,15.72-1.19,3.59-2.1,7.31-2.62,11.05-.39,2.75-.96,5.95,2.01,7.68,1.16-4.39,2.3-8.67,3.43-12.94.73.09,1.47.17,2.2.26.14,4.78.28,9.56.44,14.34.2,6.08-1.2,12.17,3.78,17.67,2.48,2.74.93,8.62,6.41,10.01.37.09.5,1.46.59,2.26.74,6.45,1.48,12.91,2.15,19.37,1.58,15.06,2.7,30.18,4.88,45.15.88,6.01,3.48,11.98,6.29,17.45,5.82,11.32,12.18,22.34,14.39,35.12.1.57.85,1.02,1.97,2.28.67-2.81,1.57-4.83,1.56-6.84-.07-11.66.21-23.38-.8-34.97-.54-6.23-.93-12.03,2.56-17.95.85,5.13-1.3,10.96,3.46,15.18,4.2,3.72,7.93,7.99,11.73,11.87-2.95,1.55-5.83,3.05-8.64,4.53,4.41,9.83,4.4,9.76,14.18,8.74,1.6-.17,3.3.68,5.8,1.25-4.81,1.98-8.56,3.52-12.34,5.08,6.25,2.21,12,4.24,17.27,6.1v11.16c-1.95-.42-3.58-.78-5.73-1.25.7,1.96,1.13,3.16,1.64,4.58-2.01.28-3.91.55-7.49,1.05,5.65,1.25,9.59,2.12,13.87,3.07.13,1.29,0,2.73.48,3.92.5,1.24,1.59,2.24,2.56,3.53-3.62,1.58-6.55,2.85-9.49,4.13.16.59.32,1.19.48,1.78,3.28-.29,6.57-.57,10.06-.87-.68,3.15-.77,5.92,2.73,6.41,2.54.36,3.66,1.64,4.69,3.75,6.83,13.87,13.49,27.76,16.53,43.1,1.48,7.44,3.32,14.81,5.14,22.18.51,2.06,1.52,4,2.31,5.99.63-.19,1.26-.38,1.88-.56-.31-3.89-.66-7.77-.92-11.66-.27-4.06-.54-8.12-.65-12.19-.1-3.85-1.54-8.98.36-11.27,3.31-4-2.48-7.53.84-10.66,6.83,4.66,7.6,5.94,9.18,14,.45,2.31.73,5.24,2.24,6.64,3.08,2.85,4.17,6.05,4.45,10.01.15,2.08.96,4.19,1.86,6.12,1.3,2.81,3.36,5.31,4.37,8.2,2.94,8.45,5.4,17.07,8.28,25.54,1.13,3.32,1.81,7.31,7.53,8.72-.58-6.09-1.14-11.96-1.7-17.83.85,1.74,1.56,3.55,2.05,5.45.38,6.72.63,13.31,1.18,19.88.55,6.56,1.47,13.09,2.11,19.65.52,5.32,4.4,10.37,9.3,14.5,6.02,10.67,12.19,23.33,12.23,34.3-.41,9.51,4.26,16.42,9.61,23.46,6.34,8.36,13.23,16.49,18.25,25.59,4.86,8.83,10.96,15.03,21.04,16.88,4.12.76,7.3,2.37,9.78,5.7,2.08,2.78,5.17,4.51,8.68,4.87,2.29.23,7.65.98,6.29-3.11-.25-.75-.72-1.4-1.2-2.03-2.48-3.26-5.91-5.84-8.3-9.09-2.05-2.79-4.05-5.25-6.69-7.61-5.68-5.06-12.13-9.17-17.98-14.02-5.14-4.27-10.26-8.58-15.06-13.21-2.35-2.27-5.21-5.12-5.63-8.01-1.21-8.3-4.26-15.85-7.46-23.47-1.36-3.25.45-7.16,3.85-7.98,4.28-1.03,8.77-1.82,13.15-1.77,7.57.09,9.73,2.16,11.51,9.34.93,3.73,2,7.45,2.63,11.23,2.74,16.52,11.14,29.5,24.36,40.09,7.32,5.87,14.04,12.66,20.11,19.79,7.62,8.95,16.62,12.47,28.23,10.23,7.17-1.39,14.33-2.64,20.43-7.01,4.58-3.28,9.1-2.93,14.19-.45,6.49,3.17,13.69,4.98,20.11,8.26,6.79,3.47,12.9,5.18,20.45,1.61,5.09-2.41,14.01-5.61,18.4-8.95,1.76-1.34,4.1-2.06,5.61-3.6,3.45-3.51,7.44-6.92,9.64-11.15,6.58-12.67,14.04-24.98,16.43-39.46,1.06-6.41,4.07-12.54,6.49-18.69,1.2-3.04,2.73-6.07,4.69-8.7,3.73-5.01,13.74-7.18,19.96-4.72,5.92,2.34,7.78,7,6.06,15.23-.23,1.07-.56,2.13-.9,3.18-4.3,13.21-10.08,25.55-20.34,35.56-7,6.83-13.12,14.46-20.19,21.2-.35.34-.72.69-.86,1.15-.13.42-.06.87.02,1.31.14.82.28,1.63.42,2.45.02.14.05.28.15.39.1.1.25.14.39.17,1.57.25,3.08-.74,4.13-1.91,2.4-2.68,3.99-4.65,7.62-5.78,3.18-.99,5.5-2.62,7.87-4.98,18.32-18.26,33.74-37.85,36.54-64.99.65-6.35,1.56-12.75,3.12-18.99h.36c.16-.64.32-1.28.5-1.92.5-1.77.92-3.57,1.32-5.37.13-.38.25-.76.4-1.14-.26,0,.9-3.74,2.53-9.51,1.35-3.48,3.27-6.75,6.42-9.57,1.59-1.43,2.72-5.69,1.76-7.23-3.26-5.28-.37-7.04,3.63-8.77,2.62,1.86,2.9,6.91,8.01,5.58,0-1.18.36-2.4-.06-3.22-2.79-5.49-2.4-11.46-.56-16.66,3.64-10.3,8.49-20.19,12.83-30.24.52.1,1.04.2,1.56.29-1.6,17.91-4.29,35.84.55,53.71,1.33-2.42,1.88-4.94,2.41-7.46,2.05-9.78,4.01-19.59,6.19-29.34,1-4.49,2.82-8.82,3.62-13.34,2.77-15.73,5.22-31.51,7.88-47.25.34-2.03.58-4.87,1.92-5.79,2.69-1.83,2.5-3.59,1.88-6.2-.66-2.77-.38-5.45,3.28-5.98-.57-6.42-2.35-13.1,3.95-19.07,1.29,5.46,2.37,10.02,3.44,14.58.66-.08,1.32-.17,1.97-.25v-16.88c3.14-3.68,5.09-5.97,6.8-7.99-.74,12.01-1.88,24.29-2.14,36.59-.25,12.18-.6,24.41,1.38,36.71,1.95-4.22,2.99-8.54,3.64-12.92,2.09-14.2,3.52-28.49,8.24-42.2,9.37-27.2,17.05-54.84,21.2-83.39.82-5.65,2.75-11.14,4.17-16.7.56.07,1.11.15,1.67.22.31,6.39.61,12.78.92,19.18,1.51-8.88,2.2-17.73,3.3-26.53,1.03-8.19,5.44-14.93,10.06-23.04,1.87,6.33,3.31,11.21,4.76,16.09,1.52-10.58-2.93-20.7-1.56-31.61,2.52,1.76,4.39,3.06,6.12,4.27,3.74-3.09,5.86-6.05,4.68-10.79-.7-2.82.02-5.97-.33-8.93-.53-4.52-.32-9.36-4.53-14.02-.14,2.34-.25,4.21-.35,5.91.03.99-.01,1.97-.17,2.92.06-.95.11-1.91.17-2.92-.17-5.86-2.8-12.31,2.52-18.05,1.3,3.84,2.25,6.68,3.21,9.53.27-.1.53-.21.8-.31.93-16.9,1.85-33.8,2.79-51.06-1.28-.52-2.65-1.09-3.2-1.31,0-11.76.95-23.16-.26-34.32-1.23-11.33-8.69-28.8-12.47-32.89.53,4.94.79,8.9,1.41,12.8,1.69,10.72,3.64,21.48.81,32.25-2.96,11.26-6.26,22.43-9.53,33.61-1.78,6.08-3.82,12.08-5.74,18.12-.58-.11-1.16-.22-1.74-.34,1.02-9.93,2.06-19.85,3.06-29.78.35-3.5,1.35-7.11.81-10.48-1.82-11.35-4.19-22.6-6.37-34.02-.37.59-1.24,1.38-1.36,2.28-.87,6.44-1.34,12.94-2.41,19.34-1.15,6.89-2.73,13.72-4.27,20.54-1.55,6.83-3.75,13.54-4.84,20.44-2.66,16.82-2.58,34.01-6.92,50.63-1.01,3.87-1.12,8.03-1.24,12.07-.17,5.93.64,11.83-4.38,16.7-1.71,1.65-2.14,4.95-2.51,7.58-.83,5.89-1.45,11.82-1.81,17.75-.48,7.95-2.27,15.46-6.03,22.54-1.89,3.55-3.13,7.43-5.03,10.97-3.3,6.14-5.87,13.28-12.95,16.01-10.57,4.08-18.31,11.18-24.89,20.12-3.12,4.23-7.14,7.81-10.94,11.88-1.83-3.05-3.1-5.16-4.37-7.28.95,15.49-7.88,27.67-11.67,41.56-3.28-1.38-6.02-2.53-9.84-4.13.44,2.5.47,3.54.8,4.46,2.13,5.83,3.18,11.62,2.4,17.48-.43-.9-.78-1.84-1.11-2.78-1.29-3.65-2.4-7.36-3.31-11.12.53,13.73.37,27.38-1.38,40.95-1.08-1.43-1.6-3.25-1.4-5.79,2.21-27.99-.92-55.76-3.77-83.53-.71-6.88-3.3-13.81.54-20.68.68-1.21-.07-3.21-.25-6.37-3.79,5.36-6.86,9.1-9.24,13.24-2.11,3.68-4.33,7.67-4.96,11.77-1.62,10.7-2.37,21.52-3.52,32.29-.2,1.87-.67,3.7-.95,5.56-.78,5.05-1.94,10.08-2.19,15.15-.37,7.59-.35,15.22-.02,22.81.3,6.82-1.26,13.08-4.39,19.23-1.51-8-2.01-16.08-3.41-24-1.31-7.4-2.42-15.2-5.66-21.82-5.03-10.25-9.86-21.11-11.3-32.57-.84-6.68-.19-14.39,4.99-18.68,3.42,19.1,5.64,38.41,6.62,57.78M1740.16,2225.34c-1.02-1.03-2.04-2.05-3.66-3.69q4.81-1.11,5.29,2.37c-.54.44-1.09.88-1.63,1.32ZM1796.47,2285.08c12.02.62,11.74,12.32,19.06,17.2-9.95,1.16-13.41-2.05-19.06-17.2Z"/>
    </g>
    <path class="cls-2" d="M2301.47,2116.85c-.06,1.02-.12,1.97-.17,2.92.16-.95.2-1.93.17-2.92Z"/>
  </g>
  <g>
    <path class="cls-2" d="M1929.62,2772.44c-.43,1.2-1.5,2.02-2.43,2.88-.77.7-1.51,1.46-2.22,2.26,1.78.21,2.91.6,3.5,1.25.52-2.1.91-4.24,1.16-6.39Z"/>
    <path class="cls-2" d="M1924.76,2777.55c-.24.37-.48.73-.73,1.1.3-.37.61-.72.93-1.07-.07,0-.13-.02-.2-.02Z"/>
    <path class="cls-2" d="M1925.98,2786.37c1.02-2.45,1.85-4.97,2.48-7.55-.59-.65-1.72-1.04-3.5-1.25-.31.35-.62.71-.93,1.07-.16.25-.33.5-.49.75l2.44,6.98Z"/>
  </g>
</svg>